<svg width="372" height="222" viewBox="0 0 372 222" fill="none" xmlns="http://www.w3.org/2000/svg">
<rect width="372" height="222" rx="25" fill="#FCFCFC" fill-opacity="0.5"/>
<line x1="185.916" y1="35" x2="185.916" y2="104" stroke="black"/>
<line x1="185.916" y1="118" x2="185.916" y2="186" stroke="black"/>
<line x1="332" y1="112.5" x2="197" y2="112.5" stroke="black"/>
<line x1="175" y1="112.5" x2="40" y2="112.5" stroke="black"/>
<path d="M74.5469 63.8906V64.0625C74.5469 64.9062 74.4062 65.75 74.125 66.5938C73.5312 68.3229 72.401 69.776 70.7344 70.9531C69.1823 72.026 67.4531 72.6771 65.5469 72.9062C65.1198 72.9583 64.6875 72.9844 64.25 72.9844C62.7083 72.9844 61.2083 72.6771 59.75 72.0625L59.6562 72.0312C59.3125 71.8333 58.974 71.7344 58.6406 71.7344C58.5781 71.7344 58.5104 71.7396 58.4375 71.75C58.2396 71.8021 58.0729 71.9167 57.9375 72.0938C57.8125 72.2604 57.75 72.4427 57.75 72.6406V72.75L57.7812 72.9844L57.0781 73V66.0781H57.7344V66.3281C57.7344 66.7344 57.8698 67.1042 58.1406 67.4375C58.4219 67.7604 58.7031 68.0312 58.9844 68.25C60.8281 69.75 62.7135 70.6927 64.6406 71.0781C65.2448 71.2031 65.8438 71.2656 66.4375 71.2656C68.0312 71.2656 69.4583 70.8646 70.7188 70.0625C71.3229 69.6771 71.8125 69.2135 72.1875 68.6719C72.6458 67.9844 72.875 67.1823 72.875 66.2656C72.875 65.3594 72.6458 64.3906 72.1875 63.3594C71.6146 62.1302 70.7708 61.0156 69.6562 60.0156C68.0208 58.5677 66.3281 57.8177 64.5781 57.7656H64.5C63.6771 57.7656 62.901 57.9844 62.1719 58.4219C61.4531 58.8594 60.8438 59.4844 60.3438 60.2969C60.0625 60.7656 59.8125 61.3333 59.5938 62C59.4792 62.4062 59.4062 62.8021 59.375 63.1875C59.3438 63.5625 59.3281 63.7552 59.3281 63.7656V63.9531H58.6562V51.3438L58.7656 51.2969C58.8281 51.2552 58.9375 51.1979 59.0938 51.125C59.9896 50.7396 61.0469 50.5469 62.2656 50.5469C62.9115 50.5469 63.5573 50.5885 64.2031 50.6719C64.8594 50.7552 65.4635 50.849 66.0156 50.9531C66.5885 51.0469 67.1719 51.1302 67.7656 51.2031C68.3698 51.276 68.9635 51.3125 69.5469 51.3125C70.7656 51.3125 71.8125 51.1094 72.6875 50.7031L73.0156 50.5625L72.9688 50.9062C72.8958 51.6875 72.5365 52.3802 71.8906 52.9844C71.3073 53.5365 70.6042 53.9115 69.7812 54.1094C69.3438 54.2031 68.8802 54.25 68.3906 54.25C67.8802 54.25 67.3646 54.2083 66.8438 54.125C66.3229 54.0312 65.7656 53.9115 65.1719 53.7656L64.7969 53.6719C64.2135 53.5156 63.625 53.3802 63.0312 53.2656C62.4375 53.1406 61.8438 53.0781 61.25 53.0781C61.0833 53.0781 60.9115 53.0833 60.7344 53.0938C60.2031 53.1354 59.8385 53.2708 59.6406 53.5C59.4948 53.6562 59.4062 53.849 59.375 54.0781C59.3438 54.3073 59.3281 54.5521 59.3281 54.8125V60.8594C60.2656 58.8385 61.7708 57.4167 63.8438 56.5938C64.7188 56.2708 65.625 56.1094 66.5625 56.1094C68.1875 56.1094 69.6927 56.5677 71.0781 57.4844C73.2552 59.0677 74.4115 61.2031 74.5469 63.8906ZM94.9375 53.6719L95.1094 53.8438C96.1302 54.9271 96.9062 56.151 97.4375 57.5156C97.9792 58.8802 98.25 60.3125 98.25 61.8125C98.25 63.3229 97.974 64.7708 97.4219 66.1562C96.8698 67.5312 96.0677 68.7656 95.0156 69.8594C93.9635 70.9427 92.7656 71.7708 91.4219 72.3438C90.0781 72.9062 88.6667 73.1875 87.1875 73.1875C85.7396 73.1875 84.349 72.9115 83.0156 72.3594C81.6927 71.7969 80.5052 70.9896 79.4531 69.9375C79.401 69.8854 79.3438 69.8281 79.2812 69.7656C78.2604 68.6823 77.4792 67.4583 76.9375 66.0938C76.3958 64.7292 76.125 63.3021 76.125 61.8125C76.125 60.2917 76.401 58.8438 76.9531 57.4688C77.5156 56.0833 78.3229 54.8438 79.375 53.75C80.4271 52.6667 81.6198 51.8438 82.9531 51.2812C84.2969 50.7083 85.7083 50.4219 87.1875 50.4219C88.6458 50.4219 90.0365 50.7031 91.3594 51.2656C92.6927 51.8177 93.8854 52.6198 94.9375 53.6719ZM77.8906 60.5781C78.2135 63.2031 79.3646 65.5677 81.3438 67.6719C81.375 67.7031 81.401 67.7344 81.4219 67.7656C81.4531 67.7865 81.4792 67.8125 81.5 67.8438C82.6458 69 83.9062 69.8906 85.2812 70.5156C86.6667 71.1406 88.0521 71.4531 89.4375 71.4531C91.4896 71.4531 93.1979 70.7708 94.5625 69.4062C95.8958 67.9583 96.5625 66.1823 96.5625 64.0781C96.5625 63.7344 96.5417 63.3854 96.5 63.0312C96.1771 60.4062 95.026 58.0417 93.0469 55.9375C93.026 55.9062 93 55.8802 92.9688 55.8594C92.9375 55.8281 92.9115 55.7969 92.8906 55.7656C91.7448 54.6094 90.4792 53.7188 89.0938 53.0938C87.7188 52.4688 86.3385 52.1562 84.9531 52.1562C82.9115 52.1562 81.2031 52.8385 79.8281 54.2031C78.4948 55.6406 77.8281 57.401 77.8281 59.4844C77.8281 59.8385 77.849 60.2031 77.8906 60.5781ZM119.031 53.6719L119.203 53.8438C120.224 54.9271 121 56.151 121.531 57.5156C122.073 58.8802 122.344 60.3125 122.344 61.8125C122.344 63.3229 122.068 64.7708 121.516 66.1562C120.964 67.5312 120.161 68.7656 119.109 69.8594C118.057 70.9427 116.859 71.7708 115.516 72.3438C114.172 72.9062 112.76 73.1875 111.281 73.1875C109.833 73.1875 108.443 72.9115 107.109 72.3594C105.786 71.7969 104.599 70.9896 103.547 69.9375C103.495 69.8854 103.438 69.8281 103.375 69.7656C102.354 68.6823 101.573 67.4583 101.031 66.0938C100.49 64.7292 100.219 63.3021 100.219 61.8125C100.219 60.2917 100.495 58.8438 101.047 57.4688C101.609 56.0833 102.417 54.8438 103.469 53.75C104.521 52.6667 105.714 51.8438 107.047 51.2812C108.391 50.7083 109.802 50.4219 111.281 50.4219C112.74 50.4219 114.13 50.7031 115.453 51.2656C116.786 51.8177 117.979 52.6198 119.031 53.6719ZM101.984 60.5781C102.307 63.2031 103.458 65.5677 105.438 67.6719C105.469 67.7031 105.495 67.7344 105.516 67.7656C105.547 67.7865 105.573 67.8125 105.594 67.8438C106.74 69 108 69.8906 109.375 70.5156C110.76 71.1406 112.146 71.4531 113.531 71.4531C115.583 71.4531 117.292 70.7708 118.656 69.4062C119.99 67.9583 120.656 66.1823 120.656 64.0781C120.656 63.7344 120.635 63.3854 120.594 63.0312C120.271 60.4062 119.12 58.0417 117.141 55.9375C117.12 55.9062 117.094 55.8802 117.062 55.8594C117.031 55.8281 117.005 55.7969 116.984 55.7656C115.839 54.6094 114.573 53.7188 113.188 53.0938C111.812 52.4688 110.432 52.1562 109.047 52.1562C107.005 52.1562 105.297 52.8385 103.922 54.2031C102.589 55.6406 101.922 57.401 101.922 59.4844C101.922 59.8385 101.943 60.2031 101.984 60.5781ZM131.25 72.2969V72.9531H124.344V72.2969L124.562 72.3125C125.062 72.3021 125.479 72.1302 125.812 71.7969C126.156 71.4531 126.328 71.0417 126.328 70.5625V59.4062C126.307 58.9167 126.125 58.5104 125.781 58.1875C125.448 57.8542 125.042 57.6875 124.562 57.6875L124.344 57.7031V57.0312H131.25V57.7031L131.031 57.6875H130.906C130.438 57.7292 130.047 57.9167 129.734 58.25C129.422 58.5833 129.266 58.9792 129.266 59.4375V63.5312H131.609C131.672 63.5312 131.729 63.526 131.781 63.5156C132 63.4948 132.214 63.4583 132.422 63.4062C132.641 63.3542 132.849 63.2865 133.047 63.2031C133.245 63.1302 133.438 63.0417 133.625 62.9375C133.802 62.8333 133.974 62.7135 134.141 62.5781C134.318 62.4531 134.479 62.3177 134.625 62.1719C134.771 62.026 134.911 61.8698 135.047 61.7031C135.172 61.5365 135.286 61.3594 135.391 61.1719C135.505 60.9844 135.604 60.7969 135.688 60.6094C135.75 60.4531 135.792 60.3229 135.812 60.2188V57.0312H139.609V57.6875H139.281C139.156 57.6875 139.031 57.6979 138.906 57.7188C138.854 57.7292 138.812 57.7396 138.781 57.75C138.771 57.75 138.755 57.7552 138.734 57.7656C138.693 57.776 138.656 57.7812 138.625 57.7812L138.609 57.7969C138.589 57.7969 138.573 57.8021 138.562 57.8125H138.531C138.448 57.8438 138.375 57.8698 138.312 57.8906C138.125 57.9635 137.943 58.0573 137.766 58.1719C137.599 58.2865 137.448 58.4167 137.312 58.5625C137.167 58.7083 137.042 58.8646 136.938 59.0312C136.823 59.2083 136.729 59.3906 136.656 59.5781L136.609 59.7188C136.589 59.7708 136.573 59.8229 136.562 59.875V59.9062C136.542 59.9583 136.526 60.0156 136.516 60.0781V60.1094C136.505 60.151 136.495 60.1927 136.484 60.2344V60.2656C136.474 60.2865 136.469 60.3073 136.469 60.3281C136.458 60.349 136.453 60.3646 136.453 60.375V60.3906C136.443 60.401 136.438 60.4167 136.438 60.4375C136.427 60.4479 136.422 60.4635 136.422 60.4844C136.411 60.5052 136.401 60.526 136.391 60.5469V60.5625C136.349 60.6771 136.297 60.8073 136.234 60.9531C136.141 61.1615 136.036 61.3646 135.922 61.5625C135.797 61.7604 135.667 61.9479 135.531 62.125C135.385 62.3021 135.229 62.474 135.062 62.6406C134.906 62.7969 134.734 62.9479 134.547 63.0938C134.37 63.2292 134.182 63.3542 133.984 63.4688C133.932 63.5 133.875 63.5312 133.812 63.5625C134.219 63.5938 134.615 63.6719 135 63.7969C135.396 63.9219 135.771 64.0885 136.125 64.2969C136.927 64.7865 137.562 65.4323 138.031 66.2344C138.521 67.099 138.766 68.0052 138.766 68.9531V70.5469C138.766 71.0365 138.938 71.4531 139.281 71.7969C139.625 72.1406 140.036 72.3125 140.516 72.3125L140.734 72.2969V72.9531H137.938C137.333 72.9323 136.833 72.724 136.438 72.3281C136.042 71.9219 135.833 71.4167 135.812 70.8125V68.9531C135.812 67.7135 135.578 66.6094 135.109 65.6406C134.661 64.7656 134.125 64.2812 133.5 64.1875H133.375L133.359 64.1719H129.266V70.5625C129.286 71.0521 129.464 71.4688 129.797 71.8125C130.13 72.1458 130.542 72.3125 131.031 72.3125L131.25 72.2969ZM156.172 61.0781V62.4531H150.047V68.5781H148.688V62.4531H142.547V61.0781H148.688V54.9531H150.047V61.0781H156.172Z" fill="#222222"/>
<path d="M75.38 90.49H73.58V94H72.515V86.11H73.58V89.575H75.395L78.17 86.11H79.325L76.22 89.935L79.55 94H78.29L75.38 90.49ZM87.6808 86.11V94H86.6158V87.055H82.8358L82.7308 89.005C82.6508 90.645 82.4608 91.905 82.1608 92.785C81.8608 93.665 81.3258 94.105 80.5558 94.105C80.3458 94.105 80.0908 94.065 79.7908 93.985L79.8658 93.07C80.0458 93.11 80.1708 93.13 80.2408 93.13C80.6508 93.13 80.9608 92.94 81.1708 92.56C81.3808 92.18 81.5208 91.71 81.5908 91.15C81.6608 90.59 81.7208 89.85 81.7708 88.93L81.9058 86.11H87.6808ZM90.7084 86.11H91.7734V92.38L97.0384 86.11H97.9834V94H96.9184V87.73L91.6684 94H90.7084V86.11ZM107.936 90.385H101.336C101.396 91.205 101.711 91.87 102.281 92.38C102.851 92.88 103.571 93.13 104.441 93.13C104.931 93.13 105.381 93.045 105.791 92.875C106.201 92.695 106.556 92.435 106.856 92.095L107.456 92.785C107.106 93.205 106.666 93.525 106.136 93.745C105.616 93.965 105.041 94.075 104.411 94.075C103.601 94.075 102.881 93.905 102.251 93.565C101.631 93.215 101.146 92.735 100.796 92.125C100.446 91.515 100.271 90.825 100.271 90.055C100.271 89.285 100.436 88.595 100.766 87.985C101.106 87.375 101.566 86.9 102.146 86.56C102.736 86.22 103.396 86.05 104.126 86.05C104.856 86.05 105.511 86.22 106.091 86.56C106.671 86.9 107.126 87.375 107.456 87.985C107.786 88.585 107.951 89.275 107.951 90.055L107.936 90.385ZM104.126 86.965C103.366 86.965 102.726 87.21 102.206 87.7C101.696 88.18 101.406 88.81 101.336 89.59H106.931C106.861 88.81 106.566 88.18 106.046 87.7C105.536 87.21 104.896 86.965 104.126 86.965ZM110.308 86.11H111.373V89.605H116.338V86.11H117.403V94H116.338V90.52H111.373V94H110.308V86.11ZM125.98 87.055H122.995V94H121.93V87.055H118.945V86.11H125.98V87.055ZM130.409 94.075C129.649 94.075 128.964 93.905 128.354 93.565C127.744 93.215 127.264 92.735 126.914 92.125C126.564 91.515 126.389 90.825 126.389 90.055C126.389 89.285 126.564 88.595 126.914 87.985C127.264 87.375 127.744 86.9 128.354 86.56C128.964 86.22 129.649 86.05 130.409 86.05C131.169 86.05 131.854 86.22 132.464 86.56C133.074 86.9 133.549 87.375 133.889 87.985C134.239 88.595 134.414 89.285 134.414 90.055C134.414 90.825 134.239 91.515 133.889 92.125C133.549 92.735 133.074 93.215 132.464 93.565C131.854 93.905 131.169 94.075 130.409 94.075ZM130.409 93.13C130.969 93.13 131.469 93.005 131.909 92.755C132.359 92.495 132.709 92.13 132.959 91.66C133.209 91.19 133.334 90.655 133.334 90.055C133.334 89.455 133.209 88.92 132.959 88.45C132.709 87.98 132.359 87.62 131.909 87.37C131.469 87.11 130.969 86.98 130.409 86.98C129.849 86.98 129.344 87.11 128.894 87.37C128.454 87.62 128.104 87.98 127.844 88.45C127.594 88.92 127.469 89.455 127.469 90.055C127.469 90.655 127.594 91.19 127.844 91.66C128.104 92.13 128.454 92.495 128.894 92.755C129.344 93.005 129.849 93.13 130.409 93.13ZM141.715 89.92C142.785 90.17 143.32 90.815 143.32 91.855C143.32 92.545 143.065 93.075 142.555 93.445C142.045 93.815 141.285 94 140.275 94H136.69V86.11H140.17C141.07 86.11 141.775 86.285 142.285 86.635C142.795 86.985 143.05 87.485 143.05 88.135C143.05 88.565 142.93 88.935 142.69 89.245C142.46 89.545 142.135 89.77 141.715 89.92ZM137.725 89.62H140.095C140.705 89.62 141.17 89.505 141.49 89.275C141.82 89.045 141.985 88.71 141.985 88.27C141.985 87.83 141.82 87.5 141.49 87.28C141.17 87.06 140.705 86.95 140.095 86.95H137.725V89.62ZM140.23 93.16C140.91 93.16 141.42 93.05 141.76 92.83C142.1 92.61 142.27 92.265 142.27 91.795C142.27 91.325 142.115 90.98 141.805 90.76C141.495 90.53 141.005 90.415 140.335 90.415H137.725V93.16H140.23Z" fill="#222222"/>
<path d="M207.54 89.92C208.61 90.17 209.145 90.815 209.145 91.855C209.145 92.545 208.89 93.075 208.38 93.445C207.87 93.815 207.11 94 206.1 94H202.515V86.11H205.995C206.895 86.11 207.6 86.285 208.11 86.635C208.62 86.985 208.875 87.485 208.875 88.135C208.875 88.565 208.755 88.935 208.515 89.245C208.285 89.545 207.96 89.77 207.54 89.92ZM203.55 89.62H205.92C206.53 89.62 206.995 89.505 207.315 89.275C207.645 89.045 207.81 88.71 207.81 88.27C207.81 87.83 207.645 87.5 207.315 87.28C206.995 87.06 206.53 86.95 205.92 86.95H203.55V89.62ZM206.055 93.16C206.735 93.16 207.245 93.05 207.585 92.83C207.925 92.61 208.095 92.265 208.095 91.795C208.095 91.325 207.94 90.98 207.63 90.76C207.32 90.53 206.83 90.415 206.16 90.415H203.55V93.16H206.055ZM211.641 86.11H212.706V92.38L217.971 86.11H218.916V94H217.851V87.73L212.601 94H211.641V86.11ZM229.663 93.07V95.905H228.658V94H221.593V95.905H220.588V93.07H221.038C221.568 93.04 221.928 92.65 222.118 91.9C222.308 91.15 222.438 90.1 222.508 88.75L222.613 86.11H228.433V93.07H229.663ZM223.483 88.81C223.433 89.93 223.338 90.855 223.198 91.585C223.058 92.305 222.808 92.8 222.448 93.07H227.368V87.055H223.573L223.483 88.81ZM234.994 94.075C234.234 94.075 233.549 93.905 232.939 93.565C232.329 93.215 231.849 92.735 231.499 92.125C231.149 91.515 230.974 90.825 230.974 90.055C230.974 89.285 231.149 88.595 231.499 87.985C231.849 87.375 232.329 86.9 232.939 86.56C233.549 86.22 234.234 86.05 234.994 86.05C235.754 86.05 236.439 86.22 237.049 86.56C237.659 86.9 238.134 87.375 238.474 87.985C238.824 88.595 238.999 89.285 238.999 90.055C238.999 90.825 238.824 91.515 238.474 92.125C238.134 92.735 237.659 93.215 237.049 93.565C236.439 93.905 235.754 94.075 234.994 94.075ZM234.994 93.13C235.554 93.13 236.054 93.005 236.494 92.755C236.944 92.495 237.294 92.13 237.544 91.66C237.794 91.19 237.919 90.655 237.919 90.055C237.919 89.455 237.794 88.92 237.544 88.45C237.294 87.98 236.944 87.62 236.494 87.37C236.054 87.11 235.554 86.98 234.994 86.98C234.434 86.98 233.929 87.11 233.479 87.37C233.039 87.62 232.689 87.98 232.429 88.45C232.179 88.92 232.054 89.455 232.054 90.055C232.054 90.655 232.179 91.19 232.429 91.66C232.689 92.13 233.039 92.495 233.479 92.755C233.929 93.005 234.434 93.13 234.994 93.13ZM246.3 89.92C247.37 90.17 247.905 90.815 247.905 91.855C247.905 92.545 247.65 93.075 247.14 93.445C246.63 93.815 245.87 94 244.86 94H241.275V86.11H244.755C245.655 86.11 246.36 86.285 246.87 86.635C247.38 86.985 247.635 87.485 247.635 88.135C247.635 88.565 247.515 88.935 247.275 89.245C247.045 89.545 246.72 89.77 246.3 89.92ZM242.31 89.62H244.68C245.29 89.62 245.755 89.505 246.075 89.275C246.405 89.045 246.57 88.71 246.57 88.27C246.57 87.83 246.405 87.5 246.075 87.28C245.755 87.06 245.29 86.95 244.68 86.95H242.31V89.62ZM244.815 93.16C245.495 93.16 246.005 93.05 246.345 92.83C246.685 92.61 246.855 92.265 246.855 91.795C246.855 91.325 246.7 90.98 246.39 90.76C246.08 90.53 245.59 90.415 244.92 90.415H242.31V93.16H244.815ZM258.392 86.05C259.132 86.05 259.802 86.22 260.402 86.56C261.002 86.89 261.472 87.36 261.812 87.97C262.152 88.58 262.322 89.275 262.322 90.055C262.322 90.845 262.152 91.545 261.812 92.155C261.472 92.765 261.002 93.24 260.402 93.58C259.812 93.91 259.142 94.075 258.392 94.075C257.752 94.075 257.172 93.945 256.652 93.685C256.142 93.415 255.722 93.025 255.392 92.515V96.91H254.327V86.11H255.347V87.67C255.667 87.15 256.087 86.75 256.607 86.47C257.137 86.19 257.732 86.05 258.392 86.05ZM258.317 93.13C258.867 93.13 259.367 93.005 259.817 92.755C260.267 92.495 260.617 92.13 260.867 91.66C261.127 91.19 261.257 90.655 261.257 90.055C261.257 89.455 261.127 88.925 260.867 88.465C260.617 87.995 260.267 87.63 259.817 87.37C259.367 87.11 258.867 86.98 258.317 86.98C257.757 86.98 257.252 87.11 256.802 87.37C256.362 87.63 256.012 87.995 255.752 88.465C255.502 88.925 255.377 89.455 255.377 90.055C255.377 90.655 255.502 91.19 255.752 91.66C256.012 92.13 256.362 92.495 256.802 92.755C257.252 93.005 257.757 93.13 258.317 93.13ZM267.281 86.05C268.311 86.05 269.101 86.31 269.651 86.83C270.201 87.34 270.476 88.1 270.476 89.11V94H269.456V92.77C269.216 93.18 268.861 93.5 268.391 93.73C267.931 93.96 267.381 94.075 266.741 94.075C265.861 94.075 265.161 93.865 264.641 93.445C264.121 93.025 263.861 92.47 263.861 91.78C263.861 91.11 264.101 90.57 264.581 90.16C265.071 89.75 265.846 89.545 266.906 89.545H269.411V89.065C269.411 88.385 269.221 87.87 268.841 87.52C268.461 87.16 267.906 86.98 267.176 86.98C266.676 86.98 266.196 87.065 265.736 87.235C265.276 87.395 264.881 87.62 264.551 87.91L264.071 87.115C264.471 86.775 264.951 86.515 265.511 86.335C266.071 86.145 266.661 86.05 267.281 86.05ZM266.906 93.235C267.506 93.235 268.021 93.1 268.451 92.83C268.881 92.55 269.201 92.15 269.411 91.63V90.34H266.936C265.586 90.34 264.911 90.81 264.911 91.75C264.911 92.21 265.086 92.575 265.436 92.845C265.786 93.105 266.276 93.235 266.906 93.235ZM276.611 94.075C275.831 94.075 275.131 93.905 274.511 93.565C273.901 93.225 273.421 92.75 273.071 92.14C272.721 91.52 272.546 90.825 272.546 90.055C272.546 89.285 272.721 88.595 273.071 87.985C273.421 87.375 273.901 86.9 274.511 86.56C275.131 86.22 275.831 86.05 276.611 86.05C277.291 86.05 277.896 86.185 278.426 86.455C278.966 86.715 279.391 87.1 279.701 87.61L278.906 88.15C278.646 87.76 278.316 87.47 277.916 87.28C277.516 87.08 277.081 86.98 276.611 86.98C276.041 86.98 275.526 87.11 275.066 87.37C274.616 87.62 274.261 87.98 274.001 88.45C273.751 88.92 273.626 89.455 273.626 90.055C273.626 90.665 273.751 91.205 274.001 91.675C274.261 92.135 274.616 92.495 275.066 92.755C275.526 93.005 276.041 93.13 276.611 93.13C277.081 93.13 277.516 93.035 277.916 92.845C278.316 92.655 278.646 92.365 278.906 91.975L279.701 92.515C279.391 93.025 278.966 93.415 278.426 93.685C277.886 93.945 277.281 94.075 276.611 94.075ZM287.167 87.055H284.182V94H283.117V87.055H280.132V86.11H287.167V87.055ZM295.24 90.385H288.64C288.7 91.205 289.015 91.87 289.585 92.38C290.155 92.88 290.875 93.13 291.745 93.13C292.235 93.13 292.685 93.045 293.095 92.875C293.505 92.695 293.86 92.435 294.16 92.095L294.76 92.785C294.41 93.205 293.97 93.525 293.44 93.745C292.92 93.965 292.345 94.075 291.715 94.075C290.905 94.075 290.185 93.905 289.555 93.565C288.935 93.215 288.45 92.735 288.1 92.125C287.75 91.515 287.575 90.825 287.575 90.055C287.575 89.285 287.74 88.595 288.07 87.985C288.41 87.375 288.87 86.9 289.45 86.56C290.04 86.22 290.7 86.05 291.43 86.05C292.16 86.05 292.815 86.22 293.395 86.56C293.975 86.9 294.43 87.375 294.76 87.985C295.09 88.585 295.255 89.275 295.255 90.055L295.24 90.385ZM291.43 86.965C290.67 86.965 290.03 87.21 289.51 87.7C289 88.18 288.71 88.81 288.64 89.59H294.235C294.165 88.81 293.87 88.18 293.35 87.7C292.84 87.21 292.2 86.965 291.43 86.965ZM297.613 86.11H298.678V89.605H303.643V86.11H304.708V94H303.643V90.52H298.678V94H297.613V86.11ZM307.735 86.11H308.8V92.38L314.065 86.11H315.01V94H313.945V87.73L308.695 94H307.735V86.11ZM318.062 86.11H319.127V92.38L324.392 86.11H325.337V94H324.272V87.73L319.022 94H318.062V86.11ZM321.647 84.97C320.967 84.97 320.427 84.8 320.027 84.46C319.627 84.12 319.422 83.64 319.412 83.02H320.177C320.187 83.41 320.327 83.725 320.597 83.965C320.867 84.195 321.217 84.31 321.647 84.31C322.077 84.31 322.427 84.195 322.697 83.965C322.977 83.725 323.122 83.41 323.132 83.02H323.897C323.887 83.64 323.677 84.12 323.267 84.46C322.867 84.8 322.327 84.97 321.647 84.97Z" fill="#222222"/>
<path d="M225.688 54.1562V54.3594H225.047V50.5938H240.766V51.2344H240.562C239.625 51.2344 238.87 51.6042 238.297 52.3438L235.766 56.25C236.911 56.3854 237.974 56.7604 238.953 57.375C240.005 58.0312 240.859 58.8802 241.516 59.9219C242.318 61.224 242.719 62.6198 242.719 64.1094C242.719 66.1823 241.969 68.0208 240.469 69.625C240.458 69.6458 240.438 69.6719 240.406 69.7031C240.375 69.7344 240.333 69.7708 240.281 69.8125C239.208 70.8542 237.995 71.651 236.641 72.2031C235.297 72.7552 233.885 73.0312 232.406 73.0312C230.625 73.0312 228.943 72.6354 227.359 71.8438C227.224 71.7708 227.078 71.7344 226.922 71.7344C226.682 71.7344 226.469 71.8125 226.281 71.9688C226.104 72.1146 225.995 72.3125 225.953 72.5625C225.943 72.6458 225.938 72.7292 225.938 72.8125L225.953 73.0312H225.297V66.1406H225.953L225.938 66.3594C225.938 66.7656 226.068 67.1354 226.328 67.4688L226.562 67.7031H226.578V67.7188C226.974 68.1042 227.396 68.4688 227.844 68.8125C230.083 70.4688 232.365 71.2969 234.688 71.2969C236.406 71.2969 237.911 70.8281 239.203 69.8906C239.359 69.776 239.51 69.6562 239.656 69.5312L239.812 69.375C239.823 69.3542 239.844 69.3385 239.875 69.3281C239.896 69.2969 239.917 69.276 239.938 69.2656C240.573 68.5885 240.922 67.8333 240.984 67V66.6719C240.984 64.8281 240.359 63.1042 239.109 61.5C237.87 59.8854 236.286 58.7708 234.359 58.1562C233.724 57.9688 233.109 57.875 232.516 57.875C232.203 57.875 231.901 57.901 231.609 57.9531L231.156 58.0312L235.562 51.2344H228.594C227.771 51.2656 227.078 51.5625 226.516 52.125C225.964 52.6771 225.688 53.3542 225.688 54.1562ZM263.156 53.6719L263.328 53.8438C264.349 54.9271 265.125 56.151 265.656 57.5156C266.198 58.8802 266.469 60.3125 266.469 61.8125C266.469 63.3229 266.193 64.7708 265.641 66.1562C265.089 67.5312 264.286 68.7656 263.234 69.8594C262.182 70.9427 260.984 71.7708 259.641 72.3438C258.297 72.9062 256.885 73.1875 255.406 73.1875C253.958 73.1875 252.568 72.9115 251.234 72.3594C249.911 71.7969 248.724 70.9896 247.672 69.9375C247.62 69.8854 247.562 69.8281 247.5 69.7656C246.479 68.6823 245.698 67.4583 245.156 66.0938C244.615 64.7292 244.344 63.3021 244.344 61.8125C244.344 60.2917 244.62 58.8438 245.172 57.4688C245.734 56.0833 246.542 54.8438 247.594 53.75C248.646 52.6667 249.839 51.8438 251.172 51.2812C252.516 50.7083 253.927 50.4219 255.406 50.4219C256.865 50.4219 258.255 50.7031 259.578 51.2656C260.911 51.8177 262.104 52.6198 263.156 53.6719ZM246.109 60.5781C246.432 63.2031 247.583 65.5677 249.562 67.6719C249.594 67.7031 249.62 67.7344 249.641 67.7656C249.672 67.7865 249.698 67.8125 249.719 67.8438C250.865 69 252.125 69.8906 253.5 70.5156C254.885 71.1406 256.271 71.4531 257.656 71.4531C259.708 71.4531 261.417 70.7708 262.781 69.4062C264.115 67.9583 264.781 66.1823 264.781 64.0781C264.781 63.7344 264.76 63.3854 264.719 63.0312C264.396 60.4062 263.245 58.0417 261.266 55.9375C261.245 55.9062 261.219 55.8802 261.188 55.8594C261.156 55.8281 261.13 55.7969 261.109 55.7656C259.964 54.6094 258.698 53.7188 257.312 53.0938C255.938 52.4688 254.557 52.1562 253.172 52.1562C251.13 52.1562 249.422 52.8385 248.047 54.2031C246.714 55.6406 246.047 57.401 246.047 59.4844C246.047 59.8385 246.068 60.2031 246.109 60.5781ZM275.375 72.2969V72.9531H268.469V72.2969L268.688 72.3125C269.188 72.3021 269.604 72.1302 269.938 71.7969C270.281 71.4531 270.453 71.0417 270.453 70.5625V59.4062C270.432 58.9167 270.25 58.5104 269.906 58.1875C269.573 57.8542 269.167 57.6875 268.688 57.6875L268.469 57.7031V57.0312H275.375V57.7031L275.156 57.6875H275.031C274.562 57.7292 274.172 57.9167 273.859 58.25C273.547 58.5833 273.391 58.9792 273.391 59.4375V63.5312H275.734C275.797 63.5312 275.854 63.526 275.906 63.5156C276.125 63.4948 276.339 63.4583 276.547 63.4062C276.766 63.3542 276.974 63.2865 277.172 63.2031C277.37 63.1302 277.562 63.0417 277.75 62.9375C277.927 62.8333 278.099 62.7135 278.266 62.5781C278.443 62.4531 278.604 62.3177 278.75 62.1719C278.896 62.026 279.036 61.8698 279.172 61.7031C279.297 61.5365 279.411 61.3594 279.516 61.1719C279.63 60.9844 279.729 60.7969 279.812 60.6094C279.875 60.4531 279.917 60.3229 279.938 60.2188V57.0312H283.734V57.6875H283.406C283.281 57.6875 283.156 57.6979 283.031 57.7188C282.979 57.7292 282.938 57.7396 282.906 57.75C282.896 57.75 282.88 57.7552 282.859 57.7656C282.818 57.776 282.781 57.7812 282.75 57.7812L282.734 57.7969C282.714 57.7969 282.698 57.8021 282.688 57.8125H282.656C282.573 57.8438 282.5 57.8698 282.438 57.8906C282.25 57.9635 282.068 58.0573 281.891 58.1719C281.724 58.2865 281.573 58.4167 281.438 58.5625C281.292 58.7083 281.167 58.8646 281.062 59.0312C280.948 59.2083 280.854 59.3906 280.781 59.5781L280.734 59.7188C280.714 59.7708 280.698 59.8229 280.688 59.875V59.9062C280.667 59.9583 280.651 60.0156 280.641 60.0781V60.1094C280.63 60.151 280.62 60.1927 280.609 60.2344V60.2656C280.599 60.2865 280.594 60.3073 280.594 60.3281C280.583 60.349 280.578 60.3646 280.578 60.375V60.3906C280.568 60.401 280.562 60.4167 280.562 60.4375C280.552 60.4479 280.547 60.4635 280.547 60.4844C280.536 60.5052 280.526 60.526 280.516 60.5469V60.5625C280.474 60.6771 280.422 60.8073 280.359 60.9531C280.266 61.1615 280.161 61.3646 280.047 61.5625C279.922 61.7604 279.792 61.9479 279.656 62.125C279.51 62.3021 279.354 62.474 279.188 62.6406C279.031 62.7969 278.859 62.9479 278.672 63.0938C278.495 63.2292 278.307 63.3542 278.109 63.4688C278.057 63.5 278 63.5312 277.938 63.5625C278.344 63.5938 278.74 63.6719 279.125 63.7969C279.521 63.9219 279.896 64.0885 280.25 64.2969C281.052 64.7865 281.688 65.4323 282.156 66.2344C282.646 67.099 282.891 68.0052 282.891 68.9531V70.5469C282.891 71.0365 283.062 71.4531 283.406 71.7969C283.75 72.1406 284.161 72.3125 284.641 72.3125L284.859 72.2969V72.9531H282.062C281.458 72.9323 280.958 72.724 280.562 72.3281C280.167 71.9219 279.958 71.4167 279.938 70.8125V68.9531C279.938 67.7135 279.703 66.6094 279.234 65.6406C278.786 64.7656 278.25 64.2812 277.625 64.1875H277.5L277.484 64.1719H273.391V70.5625C273.411 71.0521 273.589 71.4688 273.922 71.8125C274.255 72.1458 274.667 72.3125 275.156 72.3125L275.375 72.2969ZM300.297 61.0781V62.4531H294.172V68.5781H292.812V62.4531H286.672V61.0781H292.812V54.9531H294.172V61.0781H300.297Z" fill="#222222"/>
<path d="M82.515 165.11H83.58V168.605H88.545V165.11H89.61V173H88.545V169.52H83.58V173H82.515V165.11ZM95.3521 165.05C96.3821 165.05 97.1721 165.31 97.7221 165.83C98.2721 166.34 98.5471 167.1 98.5471 168.11V173H97.5271V171.77C97.2871 172.18 96.9321 172.5 96.4621 172.73C96.0021 172.96 95.4521 173.075 94.8121 173.075C93.9321 173.075 93.2321 172.865 92.7121 172.445C92.1921 172.025 91.9321 171.47 91.9321 170.78C91.9321 170.11 92.1721 169.57 92.6521 169.16C93.1421 168.75 93.9171 168.545 94.9771 168.545H97.4821V168.065C97.4821 167.385 97.2921 166.87 96.9121 166.52C96.5321 166.16 95.9771 165.98 95.2471 165.98C94.7471 165.98 94.2671 166.065 93.8071 166.235C93.3471 166.395 92.9521 166.62 92.6221 166.91L92.1421 166.115C92.5421 165.775 93.0221 165.515 93.5821 165.335C94.1421 165.145 94.7321 165.05 95.3521 165.05ZM94.9771 172.235C95.5771 172.235 96.0921 172.1 96.5221 171.83C96.9521 171.55 97.2721 171.15 97.4821 170.63V169.34H95.0071C93.6571 169.34 92.9821 169.81 92.9821 170.75C92.9821 171.21 93.1571 171.575 93.5071 171.845C93.8571 172.105 94.3471 172.235 94.9771 172.235ZM106.962 166.055H102.447V173H101.382V165.11H106.962V166.055ZM112.566 165.05C113.306 165.05 113.976 165.22 114.576 165.56C115.176 165.89 115.646 166.36 115.986 166.97C116.326 167.58 116.496 168.275 116.496 169.055C116.496 169.845 116.326 170.545 115.986 171.155C115.646 171.765 115.176 172.24 114.576 172.58C113.986 172.91 113.316 173.075 112.566 173.075C111.926 173.075 111.346 172.945 110.826 172.685C110.316 172.415 109.896 172.025 109.566 171.515V175.91H108.501V165.11H109.521V166.67C109.841 166.15 110.261 165.75 110.781 165.47C111.311 165.19 111.906 165.05 112.566 165.05ZM112.491 172.13C113.041 172.13 113.541 172.005 113.991 171.755C114.441 171.495 114.791 171.13 115.041 170.66C115.301 170.19 115.431 169.655 115.431 169.055C115.431 168.455 115.301 167.925 115.041 167.465C114.791 166.995 114.441 166.63 113.991 166.37C113.541 166.11 113.041 165.98 112.491 165.98C111.931 165.98 111.426 166.11 110.976 166.37C110.536 166.63 110.186 166.995 109.926 167.465C109.676 167.925 109.551 168.455 109.551 169.055C109.551 169.655 109.676 170.19 109.926 170.66C110.186 171.13 110.536 171.495 110.976 171.755C111.426 172.005 111.931 172.13 112.491 172.13ZM121.456 165.05C122.486 165.05 123.276 165.31 123.826 165.83C124.376 166.34 124.651 167.1 124.651 168.11V173H123.631V171.77C123.391 172.18 123.036 172.5 122.566 172.73C122.106 172.96 121.556 173.075 120.916 173.075C120.036 173.075 119.336 172.865 118.816 172.445C118.296 172.025 118.036 171.47 118.036 170.78C118.036 170.11 118.276 169.57 118.756 169.16C119.246 168.75 120.021 168.545 121.081 168.545H123.586V168.065C123.586 167.385 123.396 166.87 123.016 166.52C122.636 166.16 122.081 165.98 121.351 165.98C120.851 165.98 120.371 166.065 119.911 166.235C119.451 166.395 119.056 166.62 118.726 166.91L118.246 166.115C118.646 165.775 119.126 165.515 119.686 165.335C120.246 165.145 120.836 165.05 121.456 165.05ZM121.081 172.235C121.681 172.235 122.196 172.1 122.626 171.83C123.056 171.55 123.376 171.15 123.586 170.63V169.34H121.111C119.761 169.34 119.086 169.81 119.086 170.75C119.086 171.21 119.261 171.575 119.611 171.845C119.961 172.105 120.451 172.235 121.081 172.235ZM135.181 172.07V174.905H134.176V173H127.111V174.905H126.106V172.07H126.556C127.086 172.04 127.446 171.65 127.636 170.9C127.826 170.15 127.956 169.1 128.026 167.75L128.131 165.11H133.951V172.07H135.181ZM129.001 167.81C128.951 168.93 128.856 169.855 128.716 170.585C128.576 171.305 128.326 171.8 127.966 172.07H132.886V166.055H129.091L129.001 167.81Z" fill="#222222"/>
<path d="M94.0156 151.297V151.969H87.0312V151.297L87.25 151.312C87.7604 151.302 88.1823 151.13 88.5156 150.797C88.8594 150.453 89.0312 150.036 89.0312 149.547V133.656H87.0312V133.094L87.2031 133.062C87.4427 133.01 87.6302 132.969 87.7656 132.938C88.1198 132.854 88.4583 132.729 88.7812 132.562C89.3542 132.26 89.8542 131.849 90.2812 131.328C90.4792 131.078 90.651 130.812 90.7969 130.531C90.8698 130.385 90.9375 130.24 91 130.094C91.0208 130.031 91.0729 129.88 91.1562 129.641L91.2031 129.5H92.0156V149.547C92.0156 150.036 92.1875 150.453 92.5312 150.797C92.8854 151.141 93.3073 151.312 93.7969 151.312L94.0156 151.297ZM113.266 142.891V143.062C113.266 143.906 113.125 144.75 112.844 145.594C112.25 147.323 111.12 148.776 109.453 149.953C107.901 151.026 106.172 151.677 104.266 151.906C103.839 151.958 103.406 151.984 102.969 151.984C101.427 151.984 99.9271 151.677 98.4688 151.062L98.375 151.031C98.0312 150.833 97.6927 150.734 97.3594 150.734C97.2969 150.734 97.2292 150.74 97.1562 150.75C96.9583 150.802 96.7917 150.917 96.6562 151.094C96.5312 151.26 96.4688 151.443 96.4688 151.641V151.75L96.5 151.984L95.7969 152V145.078H96.4531V145.328C96.4531 145.734 96.5885 146.104 96.8594 146.438C97.1406 146.76 97.4219 147.031 97.7031 147.25C99.5469 148.75 101.432 149.693 103.359 150.078C103.964 150.203 104.562 150.266 105.156 150.266C106.75 150.266 108.177 149.865 109.438 149.062C110.042 148.677 110.531 148.214 110.906 147.672C111.365 146.984 111.594 146.182 111.594 145.266C111.594 144.359 111.365 143.391 110.906 142.359C110.333 141.13 109.49 140.016 108.375 139.016C106.74 137.568 105.047 136.818 103.297 136.766H103.219C102.396 136.766 101.62 136.984 100.891 137.422C100.172 137.859 99.5625 138.484 99.0625 139.297C98.7812 139.766 98.5312 140.333 98.3125 141C98.1979 141.406 98.125 141.802 98.0938 142.188C98.0625 142.562 98.0469 142.755 98.0469 142.766V142.953H97.375V130.344L97.4844 130.297C97.5469 130.255 97.6562 130.198 97.8125 130.125C98.7083 129.74 99.7656 129.547 100.984 129.547C101.63 129.547 102.276 129.589 102.922 129.672C103.578 129.755 104.182 129.849 104.734 129.953C105.307 130.047 105.891 130.13 106.484 130.203C107.089 130.276 107.682 130.312 108.266 130.312C109.484 130.312 110.531 130.109 111.406 129.703L111.734 129.562L111.688 129.906C111.615 130.688 111.255 131.38 110.609 131.984C110.026 132.536 109.323 132.911 108.5 133.109C108.062 133.203 107.599 133.25 107.109 133.25C106.599 133.25 106.083 133.208 105.562 133.125C105.042 133.031 104.484 132.911 103.891 132.766L103.516 132.672C102.932 132.516 102.344 132.38 101.75 132.266C101.156 132.141 100.562 132.078 99.9688 132.078C99.8021 132.078 99.6302 132.083 99.4531 132.094C98.9219 132.135 98.5573 132.271 98.3594 132.5C98.2135 132.656 98.125 132.849 98.0938 133.078C98.0625 133.307 98.0469 133.552 98.0469 133.812V139.859C98.9844 137.839 100.49 136.417 102.562 135.594C103.438 135.271 104.344 135.109 105.281 135.109C106.906 135.109 108.411 135.568 109.797 136.484C111.974 138.068 113.13 140.203 113.266 142.891ZM128.578 140.078V141.453H122.453V147.578H121.094V141.453H114.953V140.078H121.094V133.953H122.453V140.078H128.578Z" fill="#222222"/>
<path d="M231.04 172.04C231.04 173.27 230.635 174.235 229.825 174.935C229.015 175.635 227.87 176.015 226.39 176.075V178.91H225.355V176.09C223.885 176.03 222.745 175.65 221.935 174.95C221.135 174.24 220.735 173.27 220.735 172.04C220.735 170.82 221.135 169.865 221.935 169.175C222.745 168.485 223.885 168.11 225.355 168.05V164.87H226.39V168.05C227.87 168.12 229.015 168.5 229.825 169.19C230.635 169.88 231.04 170.83 231.04 172.04ZM221.785 172.04C221.785 172.98 222.085 173.715 222.685 174.245C223.295 174.775 224.185 175.075 225.355 175.145V168.995C224.195 169.055 223.31 169.35 222.7 169.88C222.09 170.4 221.785 171.12 221.785 172.04ZM226.39 175.145C227.56 175.085 228.45 174.79 229.06 174.26C229.68 173.73 229.99 172.99 229.99 172.04C229.99 171.11 229.68 170.385 229.06 169.865C228.45 169.345 227.56 169.055 226.39 168.995V175.145ZM233.292 168.11H234.357V174.38L239.622 168.11H240.567V176H239.502V169.73L234.252 176H233.292V168.11ZM250.069 168.11V176H249.004V169.055H245.224L245.119 171.005C245.039 172.645 244.849 173.905 244.549 174.785C244.249 175.665 243.714 176.105 242.944 176.105C242.734 176.105 242.479 176.065 242.179 175.985L242.254 175.07C242.434 175.11 242.559 175.13 242.629 175.13C243.039 175.13 243.349 174.94 243.559 174.56C243.769 174.18 243.909 173.71 243.979 173.15C244.049 172.59 244.109 171.85 244.159 170.93L244.294 168.11H250.069ZM259.547 168.11V176H258.482V169.055H254.702L254.597 171.005C254.517 172.645 254.327 173.905 254.027 174.785C253.727 175.665 253.192 176.105 252.422 176.105C252.212 176.105 251.957 176.065 251.657 175.985L251.732 175.07C251.912 175.11 252.037 175.13 252.107 175.13C252.517 175.13 252.827 174.94 253.037 174.56C253.247 174.18 253.387 173.71 253.457 173.15C253.527 172.59 253.587 171.85 253.637 170.93L253.772 168.11H259.547ZM262.575 168.11H263.64V174.38L268.905 168.11H269.85V176H268.785V169.73L263.535 176H262.575V168.11ZM275.617 168.05C276.647 168.05 277.437 168.31 277.987 168.83C278.537 169.34 278.812 170.1 278.812 171.11V176H277.792V174.77C277.552 175.18 277.197 175.5 276.727 175.73C276.267 175.96 275.717 176.075 275.077 176.075C274.197 176.075 273.497 175.865 272.977 175.445C272.457 175.025 272.197 174.47 272.197 173.78C272.197 173.11 272.437 172.57 272.917 172.16C273.407 171.75 274.182 171.545 275.242 171.545H277.747V171.065C277.747 170.385 277.557 169.87 277.177 169.52C276.797 169.16 276.242 168.98 275.512 168.98C275.012 168.98 274.532 169.065 274.072 169.235C273.612 169.395 273.217 169.62 272.887 169.91L272.407 169.115C272.807 168.775 273.287 168.515 273.847 168.335C274.407 168.145 274.997 168.05 275.617 168.05ZM275.242 175.235C275.842 175.235 276.357 175.1 276.787 174.83C277.217 174.55 277.537 174.15 277.747 173.63V172.34H275.272C273.922 172.34 273.247 172.81 273.247 173.75C273.247 174.21 273.422 174.575 273.772 174.845C274.122 175.105 274.612 175.235 275.242 175.235ZM288.097 168.11V176H287.032V169.055H283.252L283.147 171.005C283.067 172.645 282.877 173.905 282.577 174.785C282.277 175.665 281.742 176.105 280.972 176.105C280.762 176.105 280.507 176.065 280.207 175.985L280.282 175.07C280.462 175.11 280.587 175.13 280.657 175.13C281.067 175.13 281.377 174.94 281.587 174.56C281.797 174.18 281.937 173.71 282.007 173.15C282.077 172.59 282.137 171.85 282.187 170.93L282.322 168.11H288.097ZM294.379 176.075C293.619 176.075 292.934 175.905 292.324 175.565C291.714 175.215 291.234 174.735 290.884 174.125C290.534 173.515 290.359 172.825 290.359 172.055C290.359 171.285 290.534 170.595 290.884 169.985C291.234 169.375 291.714 168.9 292.324 168.56C292.934 168.22 293.619 168.05 294.379 168.05C295.139 168.05 295.824 168.22 296.434 168.56C297.044 168.9 297.519 169.375 297.859 169.985C298.209 170.595 298.384 171.285 298.384 172.055C298.384 172.825 298.209 173.515 297.859 174.125C297.519 174.735 297.044 175.215 296.434 175.565C295.824 175.905 295.139 176.075 294.379 176.075ZM294.379 175.13C294.939 175.13 295.439 175.005 295.879 174.755C296.329 174.495 296.679 174.13 296.929 173.66C297.179 173.19 297.304 172.655 297.304 172.055C297.304 171.455 297.179 170.92 296.929 170.45C296.679 169.98 296.329 169.62 295.879 169.37C295.439 169.11 294.939 168.98 294.379 168.98C293.819 168.98 293.314 169.11 292.864 169.37C292.424 169.62 292.074 169.98 291.814 170.45C291.564 170.92 291.439 171.455 291.439 172.055C291.439 172.655 291.564 173.19 291.814 173.66C292.074 174.13 292.424 174.495 292.864 174.755C293.314 175.005 293.819 175.13 294.379 175.13ZM305.686 171.92C306.756 172.17 307.291 172.815 307.291 173.855C307.291 174.545 307.036 175.075 306.526 175.445C306.016 175.815 305.256 176 304.246 176H300.661V168.11H304.141C305.041 168.11 305.746 168.285 306.256 168.635C306.766 168.985 307.021 169.485 307.021 170.135C307.021 170.565 306.901 170.935 306.661 171.245C306.431 171.545 306.106 171.77 305.686 171.92ZM301.696 171.62H304.066C304.676 171.62 305.141 171.505 305.461 171.275C305.791 171.045 305.956 170.71 305.956 170.27C305.956 169.83 305.791 169.5 305.461 169.28C305.141 169.06 304.676 168.95 304.066 168.95H301.696V171.62ZM304.201 175.16C304.881 175.16 305.391 175.05 305.731 174.83C306.071 174.61 306.241 174.265 306.241 173.795C306.241 173.325 306.086 172.98 305.776 172.76C305.466 172.53 304.976 172.415 304.306 172.415H301.696V175.16H304.201Z" fill="#222222"/>
<path d="M258.406 154.109C257.198 153.286 256.318 152.38 255.766 151.391C255.359 150.641 255.156 149.87 255.156 149.078C255.156 148.599 255.229 148.115 255.375 147.625C255.667 146.76 256.115 146.036 256.719 145.453C257.323 144.859 257.938 144.37 258.562 143.984C258.938 143.745 259.318 143.526 259.703 143.328C259.724 143.328 259.766 143.307 259.828 143.266C259.984 143.172 260.12 143.099 260.234 143.047C259.484 142.714 258.792 142.286 258.156 141.766C257.531 141.245 257.104 140.547 256.875 139.672C256.802 139.349 256.766 139.026 256.766 138.703C256.766 137.901 256.974 137.141 257.391 136.422C257.755 135.839 258.24 135.349 258.844 134.953C259.604 134.495 260.302 134.161 260.938 133.953C262.094 133.516 263.328 133.297 264.641 133.297C264.911 133.297 265.177 133.307 265.438 133.328C266.917 133.422 268.339 133.792 269.703 134.438C270.214 134.667 270.719 134.974 271.219 135.359C271.729 135.734 272.151 136.203 272.484 136.766C272.828 137.328 273 138 273 138.781C273 139.406 272.87 140 272.609 140.562C272.536 140.708 272.458 140.854 272.375 141C272.344 141.031 272.323 141.062 272.312 141.094C271.99 141.552 271.604 141.938 271.156 142.25C270.708 142.552 270.245 142.812 269.766 143.031C269.661 143.062 269.557 143.104 269.453 143.156C269.505 143.188 269.552 143.208 269.594 143.219C269.688 143.26 269.771 143.302 269.844 143.344C270.406 143.615 271.01 143.984 271.656 144.453C272.302 144.922 272.875 145.49 273.375 146.156C273.667 146.531 273.891 146.948 274.047 147.406C274.266 148 274.375 148.594 274.375 149.188C274.375 149.75 274.276 150.297 274.078 150.828C273.672 151.953 272.693 153.047 271.141 154.109C269.161 155.411 267.021 156.062 264.719 156.062C263.969 156.062 263.219 155.99 262.469 155.844C261.01 155.542 259.656 154.964 258.406 154.109ZM271.328 141.156C271.474 140.917 271.547 140.672 271.547 140.422C271.547 140.141 271.474 139.87 271.328 139.609C271.193 139.339 271.036 139.104 270.859 138.906C270.693 138.698 270.552 138.547 270.438 138.453C270.312 138.328 270.182 138.214 270.047 138.109C269.411 137.568 268.661 137.052 267.797 136.562C266.932 136.073 266.005 135.672 265.016 135.359C264.036 135.047 263.062 134.891 262.094 134.891C260.865 134.891 259.802 135.193 258.906 135.797C258.562 136.036 258.354 136.365 258.281 136.781C258.271 136.875 258.266 136.969 258.266 137.062C258.266 137.479 258.406 137.891 258.688 138.297C259.51 139.38 260.771 140.333 262.469 141.156C264.073 141.917 265.734 142.297 267.453 142.297C267.891 142.297 268.333 142.271 268.781 142.219C269.292 142.167 269.781 142.068 270.25 141.922C270.719 141.766 271.078 141.51 271.328 141.156ZM258.031 145.188C257.25 145.792 256.859 146.5 256.859 147.312C256.859 147.865 257.042 148.432 257.406 149.016C258.021 149.984 259.021 150.974 260.406 151.984C261.615 152.859 262.88 153.495 264.203 153.891C265.193 154.182 266.177 154.328 267.156 154.328C267.958 154.328 268.719 154.224 269.438 154.016C270.646 153.661 271.568 153.109 272.203 152.359C272.589 151.901 272.781 151.406 272.781 150.875C272.781 150.771 272.771 150.667 272.75 150.562C272.656 150.021 272.411 149.5 272.016 149C271.63 148.5 271.24 148.057 270.844 147.672C270.01 146.797 269.078 146.068 268.047 145.484C266.099 144.432 264.193 143.906 262.328 143.906C260.661 143.906 259.229 144.333 258.031 145.188Z" fill="#222222"/>
</svg>
